<svg xmlns="http://www.w3.org/2000/svg" viewBox="0 0 1600 900" width="1600" height="900">
  <defs>
    <linearGradient id="base" x1="0" y1="0" x2="1" y2="1">
      <stop offset="0%" stop-color="#0e1533"/>
      <stop offset="100%" stop-color="#1e2a5a"/>
    </linearGradient>
    <radialGradient id="vignette" cx="50%" cy="45%" r="75%">
      <stop offset="55%" stop-color="#0e1533" stop-opacity="0"/>
      <stop offset="100%" stop-color="#0e1533" stop-opacity="0.4"/>
    </radialGradient>
    <filter id="orbBlur" x="-60%" y="-60%" width="220%" height="220%" color-interpolation-filters="sRGB">
      <feGaussianBlur stdDeviation="55"/>
    </filter>
    <filter id="orbBlurSharp" x="-60%" y="-60%" width="220%" height="220%" color-interpolation-filters="sRGB">
      <feGaussianBlur stdDeviation="7"/>
    </filter>
    
    <filter id="grain" x="-20%" y="-20%" width="140%" height="140%">
      <feTurbulence type="fractalNoise" baseFrequency="0.85" numOctaves="2" stitchTiles="stitch" result="noise"/>
      <feColorMatrix in="noise" type="matrix"
        values="0 0 0 0 1  0 0 0 0 1  0 0 0 0 1  0 0 0 0.07 0"/>
    </filter>
  </defs>
  <rect width="1600" height="900" fill="url(#base)"/>
  <g filter="url(#orbBlur)">
      <circle cx="423" cy="486" r="221" fill="#1e2a5a" opacity="0.45"/>
      <circle cx="174" cy="56" r="318" fill="#2a43a6" opacity="0.43"/>
      <circle cx="356" cy="626" r="257" fill="#1e2a5a" opacity="0.39"/>
      <circle cx="1320" cy="233" r="176" fill="#1e2a5a" opacity="0.48"/>
      <circle cx="1047" cy="97" r="302" fill="#c79a3a" opacity="0.36"/>
      <circle cx="125" cy="746" r="242" fill="#1e2a5a" opacity="0.47"/>
      <circle cx="1406" cy="365" r="311" fill="#1e2a5a" opacity="0.54"/>
      <circle cx="273" cy="341" r="151" fill="#1e2a5a" opacity="0.34"/>
  </g>
  <g filter="url(#orbBlurSharp)">
      <circle cx="1396" cy="404" r="62" fill="#2a43a6" opacity="0.46"/>
      <circle cx="1227" cy="503" r="58" fill="#1e2a5a" opacity="0.50"/>
      <circle cx="1317" cy="581" r="77" fill="#2a43a6" opacity="0.60"/>
      <circle cx="1019" cy="207" r="73" fill="#c79a3a" opacity="0.53"/>
  </g>
  <rect width="1600" height="900" fill="url(#vignette)"/>
  <rect width="1600" height="900" filter="url(#grain)"/>
</svg>